<svg version="1" xmlns="http://www.w3.org/2000/svg" width="274.667" height="274.667" viewBox="0 0 206.000000 206.000000"><path d="M139.4 27.5c1.6 38.3 1.8 40.5 3.5 40.5 1.4 0 1.5-1.5.8-13.7-1.6-29.7-2.5-39.5-3.7-40.6-1-1-1.1 1.9-.6 13.8zM55 26.9c0 2.8.5 5.1 1 5.1.6 0 1-2 1-4.4 0-2.5-.4-4.8-1-5.1-.6-.4-1 1.3-1 4.4zM68.4 29.7c.4 3.7.4 3.8 5 4.1 4.5.3 4.6.2 4.6-2.6 0-3.6-1.4-4.8-6.2-5.1l-3.7-.2.3 3.8zM86.7 26.7c-.4.7-.3 4.5.2 6.3 0 .3 3.8.3 8.3 0l8.3-.5.3-3.3.3-3.2h-8.5c-4.7 0-8.7.3-8.9.7zM112.7 28c.3 1.1 0 2.7-.7 3.5-1.1 1.3-.5 1.5 4.2 1.5h5.4l-.4-3.5c-.4-3.4-.5-3.5-4.7-3.5-3.8 0-4.3.2-3.8 2zM53.6 41.2c-.6 1.9-.1 4.7 1.3 9 1.3 3.7 2.1 8.7 2.1 12.5 0 4.4.4 6.3 1.3 6.3s1.1-2.6.9-11.3c-.3-9-.7-11.6-2.2-13.2-1-1.1-2-2.9-2.2-4-.4-1.7-.6-1.6-1.2.7z"/><path d="M132.8 41.2c-2.6 2-3.8 2.1-21.5 1.9-10.3-.1-25.9.1-34.5.5l-15.7.7.6 8.1c.3 4.4 1 8.7 1.6 9.3.6.9.6 1.3-.2 1.3-.6 0-1.1.7-1.1 1.6 0 .9.5 1.2 1.2.8.8-.5.9 0 .5 1.7-.4 1.3-.7 3-.7 3.6 0 .7-.7 1.3-1.5 1.3-2 0-2.1.1-4.6 17.4-2.3 16-2.2 16.6 2.8 16.6 1.2 0 2.4.3 2.6.7.3.5-.4 5.7-1.4 11.8-1.8 10.5-2 25.9-.4 28.5.3.5 1.4 1 2.5 1 2.2 0 3.5-4.3 2-7-1.2-2.3-1.3-3.3-.1-2.6 1.5.9 2.1-2.3 1-4.8-.9-1.8-.7-3 .5-5.2.8-1.6 1.5-2.3 1.6-1.7 0 .7.6 1.3 1.4 1.3 1.1 0 1.3 1 .9 4.2-.5 3-.3 3.9.6 3.4.7-.5 1.1-2.7 1-5.7-.2-4.1-.6-4.9-2.1-4.9-1.4 0-1.8-.5-1.3-1.9.5-1.8 2.5-12.8 2.5-14.3 0-.4.7-.5 1.5-.2 1.4.6 1.4 2-.1 9.1-.2 1.3 0 2.3.5 2.3s1.2-2.5 1.6-5.5c.4-3.2 1.1-5.5 1.8-5.5 1.5 0 3.9 1.5 3.8 2.4-.1.3-.1 4.2-.1 8.6 0 7.2.2 8 1.9 8s2 1.1 2.6 12.6c.4 6.9.4 14.6 0 17.2-.7 4.5-.7 35.3 0 36.1.2.2 11.1 0 24.3-.4l23.9-.7 1-4.2c.8-2.7.8-7.9.3-15.6-.5-6.3-.9-13.2-.9-15.3-.1-2.4-.6-3.7-1.4-3.7-1.1 0-1.6-2.7-2-10.7-1-16.1-.9-20 .7-20.6 1.1-.4 1.3-2.1.9-7.4-.3-3.7-.3-6.6 0-6.3.3.3 1.9 6.1 3.6 12.9 3.3 13.2 4 14.9 4.3 11 .1-1.3.2-3.1.3-3.9 0-.8.5-2.1.9-2.9.6-.9.2-1.9-1.2-3-1.1-.9-2.5-3.4-3-5.6-2.3-9.5-2.3-9.5-.5-9.5 1 0 3.1-.7 4.6-1.5 1.6-.8 4.7-2 6.9-2.5 4.6-1.3 4.5.9.5-20.2l-2.2-11.6-4.3-.4c-6.2-.5-7.2.4-7 6.3 0 3.4-.4 5.4-1.3 6-.8.5-7.5.9-14.9 1-7.4 0-22.5.2-33.5.2l-20 .2-.3-3.7c-.3-3.7-.3-3.7 4-4l4.3-.3-.3-4.3-.4-4.2h4.1c2.8 0 4.3-.5 5-1.8.7-1.1 1-1.2 1.1-.3 0 .9 1 1.2 3.4.9l3.4-.4-.2 5.1-.1 5h18l.3-4.9.3-4.8 6.7.6c3.7.3 7.3.6 7.9.6.7 0 1.6 1.8 1.9 4 .6 3.9.8 4 4.6 4h3.9l-.3-4.3c-.3-4.2-.3-4.2-4.5-4.5-4.3-.3-4.3-.3-4.3-4.3V60h4.4c3.6 0 4.5-.4 4.9-2.1 1.1-4 2.7-.7 2.7 5.5 0 5.1.3 6.3 1.6 6.3 1.4 0 1.5-.8 1-5.1-.3-2.8-.6-9.7-.6-15.4 0-5.6-.3-10.2-.7-10.1-.5 0-2 1-3.5 2.1zM103.5 66c-.3.5-1.8.9-3.3.9l-2.7-.1 3-.8c1.7-.4 3.1-.8 3.3-.9.2 0 0 .3-.3.9zm9.2-.4c-.3.3-1.2.4-1.9.1-.8-.3-.5-.6.6-.6 1.1-.1 1.7.2 1.3.5z"/><path d="M53.3 78c-.7 1.9-1.7 7.8-2.3 13-.7 5.2-1.5 10.6-1.9 12-.4 1.4-.6 4.4-.3 6.7.3 3.6 1.1 4.8 4.4 7.4 2.1 1.7 4.1 2.9 4.4 2.7.2-.3.7-2.8 1-5.5.6-4.9.6-4.9-2.7-5.9-3.3-1-3.4-1.1-3.4-6.4 0-3 .7-9.3 1.4-14 .7-4.7 1.1-9.6.9-11-.3-2.3-.4-2.3-1.5 1zM153.1 89.6c0 1.1.3 1.4.6.6.3-.7.2-1.6-.1-1.9-.3-.4-.6.2-.5 1.3zM154.6 104.7c-.4.4-2.6 1.2-4.9 1.8-4.9 1.2-4.9.7-1.2 15.4 3.3 12.7 2.8 14.6-3.8 15.6-7.8 1.2-8.9.6-10.9-5.5l-1.7-5.5.4 6c.3 3.3.6 8.8.7 12.2.2 6.2 1.3 8.5 2 4.1.2-1.9 1.2-2.4 5.8-3.1 3-.4 6.4-1.4 7.6-2.2 3.4-2.2 4.4-10.8 2.3-20.7l-1.2-5.2 3.7-3.1c2-1.7 3.6-3.9 3.5-5-.1-3-1.4-5.7-2.3-4.8zM75.6 135c-.6 4.7-.8 5-3.6 5-2.7 0-3 .3-3 3.3 0 4.8-2.4 7.7-6.5 7.7-4.5 0-7-3.5-6.2-8.5.4-2.4.1-3.8-1-4.7-1.5-1.2-1.6-.5-.9 6.7.7 8.7 2.7 12.8 6.5 13.3 3.3.5 7.9-1.7 8.7-4.1.9-2.8 4.4-7.5 6.1-8.1 3.3-1.3 4.3.5 4.3 7.7 0 3.9.3 6.7.7 6.3 1.2-1.2.3-28-1-28.8-2.5-1.6-3.5-.6-4.1 4.2zM137 165c0 .5.5 1 1.1 1 .5 0 .7-.5.4-1-.3-.6-.8-1-1.1-1-.2 0-.4.4-.4 1zM79 181.7c0 18.3.3 19.9 4.5 21.3 3.7 1.2 46.8 1.6 49.7.5 3.1-1.2 5.7-6.8 6.4-13.8.4-3.7.4-6.7.1-6.7-.3 0-1.5 2.9-2.7 6.5l-2.2 6.5H81.2l-.4-2.3c-.3-1.3-.6-7.5-.7-13.8-.1-6.2-.4-11.6-.7-11.8-.2-.2-.4 5.9-.4 13.6zM138.2 173.5c0 1.6.2 2.2.5 1.2.2-.9.2-2.3 0-3-.3-.6-.5.1-.5 1.8zM73.8 205.7c1.2.2 3 .2 4 0 .9-.3-.1-.5-2.3-.4-2.2 0-3 .2-1.7.4z"/></svg>